<?xml version="1.0" encoding="UTF-8"?>
<svg enable-background="new 0 0 512 512" version="1.1" viewBox="0 0 512 512" xml:space="preserve" xmlns="http://www.w3.org/2000/svg">
<g fill="#25B6D2">
	<path d="m448.46 403.27c-22.256-21.312-63.664-68.128-50.288-110.98 15.616-49.984 67.792-78.544 67.792-78.544s-150.54-17.44-195.17 140.29c74.88 21.904 126.98 56.768 177.66 49.232z"/>
	<path d="m197.2 339.38c24.752 2.512 47.296 7.248 68.112 13.056-26.352-28.048-42.816-67.44-42.816-108.03 0-126.58 146.93-138.45 146.93-138.45s-141.68-68.32-240.59 25.664c-84.48 80.288-80.368 196.37-77.36 228.61 30.544-15.648 77.04-27.808 145.73-20.848z"/>
</g>
<path d="m270.8 354.04c-1.824-0.528-3.632-1.072-5.488-1.6-20.816-5.808-43.36-10.56-68.112-13.056-68.688-6.96-115.18 5.2-145.73 20.848-38.24 19.584-51.472 44.64-51.472 44.64s50.32-62.08 186.05-36.464 264.7 124.83 325.95 0c-21.952 21.488-42.624 31.76-63.536 34.864-50.688 7.536-102.78-27.328-177.66-49.232z" fill="#2C3E50"/>
</svg>